<svg width="140" height="191" viewBox="0 0 140 191" fill="none" xmlns="http://www.w3.org/2000/svg">
<path d="M95.4141 2.51147L2.12115 95.8035L95.3858 188.077L137.684 142.829L138.414 143.511L96.0967 188.78L96.1172 188.801L95.4141 189.511L94.6837 188.829L94.7022 188.807L1.41412 96.5115L0.707092 95.8044L94.7071 1.80444L95.4141 2.51147ZM139.414 143.511H138.414V2.51147H139.414V143.511ZM138.414 1.51147L95.4141 2.51147L95.3907 1.51147L138.391 0.511475L138.414 1.51147Z" fill="white"/>
<path d="M2.12115 95.8035L1.7676 95.4499L1.41215 95.8054L1.7695 96.1589L2.12115 95.8035ZM95.3858 188.077L95.0341 188.432L95.3998 188.794L95.7511 188.418L95.3858 188.077ZM137.684 142.829L138.025 142.464L137.66 142.122L137.318 142.487L137.684 142.829ZM96.0967 188.78L95.7315 188.439L95.4013 188.792L95.7432 189.134L96.0967 188.78ZM96.1172 188.801L96.4727 189.152L96.8224 188.799L96.4708 188.447L96.1172 188.801ZM95.4141 189.511L95.0727 189.877L95.4278 190.209L95.7696 189.863L95.4141 189.511ZM94.6837 188.829L94.3052 188.502L93.991 188.866L94.3423 189.194L94.6837 188.829ZM94.7022 188.807L95.0806 189.134L95.386 188.781L95.0539 188.452L94.7022 188.807ZM1.41412 96.5115L1.06057 96.865L1.06247 96.8669L1.41412 96.5115ZM0.707092 95.8044L0.353539 95.4509L-1.44839e-05 95.8044L0.353539 96.158L0.707092 95.8044ZM94.7071 1.80444L95.0606 1.45089L94.7071 1.09734L94.3535 1.45089L94.7071 1.80444ZM139.414 143.511V144.011H139.914V143.511H139.414ZM138.414 2.51147V2.01147H137.914V2.51147H138.414ZM139.414 2.51147H139.914V2.01147H139.414V2.51147ZM138.414 1.51147L138.426 2.01134L138.926 1.99971L138.914 1.49976L138.414 1.51147ZM95.3907 1.51147L95.3791 1.01161L94.8791 1.02324L94.8908 1.52319L95.3907 1.51147ZM138.391 0.511475L138.891 0.499759L138.879 -1.28746e-05L138.379 0.0116098L138.391 0.511475ZM95.4141 2.51147L95.0606 2.15792L1.7676 95.4499L2.12115 95.8035L2.47471 96.157L95.7677 2.86503L95.4141 2.51147ZM2.12115 95.8035L1.7695 96.1589L95.0341 188.432L95.3858 188.077L95.7375 187.721L2.47281 95.448L2.12115 95.8035ZM95.3858 188.077L95.7511 188.418L138.049 143.17L137.684 142.829L137.318 142.487L95.0205 187.735L95.3858 188.077ZM137.684 142.829L137.342 143.194L138.073 143.877L138.414 143.511L138.756 143.146L138.025 142.464L137.684 142.829ZM138.414 143.511L138.049 143.17L95.7315 188.439L96.0967 188.78L96.462 189.121L138.779 143.853L138.414 143.511ZM96.0967 188.78L95.7432 189.134L95.7637 189.154L96.1172 188.801L96.4708 188.447L96.4503 188.426L96.0967 188.78ZM96.1172 188.801L95.7617 188.449L95.0586 189.16L95.4141 189.511L95.7696 189.863L96.4727 189.152L96.1172 188.801ZM95.4141 189.511L95.7555 189.146L95.025 188.464L94.6837 188.829L94.3423 189.194L95.0727 189.877L95.4141 189.511ZM94.6837 188.829L95.0621 189.156L95.0806 189.134L94.7022 188.807L94.3238 188.481L94.3052 188.502L94.6837 188.829ZM94.7022 188.807L95.0539 188.452L1.76578 96.156L1.41412 96.5115L1.06247 96.8669L94.3505 189.163L94.7022 188.807ZM1.41412 96.5115L1.76768 96.1579L1.06065 95.4509L0.707092 95.8044L0.353539 96.158L1.06057 96.865L1.41412 96.5115ZM0.707092 95.8044L1.06065 96.158L95.0606 2.158L94.7071 1.80444L94.3535 1.45089L0.353539 95.4509L0.707092 95.8044ZM94.7071 1.80444L94.3535 2.158L95.0606 2.86503L95.4141 2.51147L95.7677 2.15792L95.0606 1.45089L94.7071 1.80444ZM139.414 143.511V143.011H138.414V143.511V144.011H139.414V143.511ZM138.414 143.511H138.914V2.51147H138.414H137.914V143.511H138.414ZM138.414 2.51147V3.01147H139.414V2.51147V2.01147H138.414V2.51147ZM139.414 2.51147H138.914V143.511H139.414H139.914V2.51147H139.414ZM138.414 1.51147L138.402 1.01161L95.4025 2.01161L95.4141 2.51147L95.4258 3.01134L138.426 2.01134L138.414 1.51147ZM95.4141 2.51147L95.914 2.49976L95.8905 1.49976L95.3907 1.51147L94.8908 1.52319L94.9143 2.52319L95.4141 2.51147ZM95.3907 1.51147L95.4023 2.01134L138.402 1.01134L138.391 0.511475L138.379 0.0116098L95.3791 1.01161L95.3907 1.51147ZM138.391 0.511475L137.891 0.52319L137.914 1.52319L138.414 1.51147L138.914 1.49976L138.891 0.499759L138.391 0.511475Z" fill="#FA0606"/>
</svg>
